<?xml version="1.0" encoding="utf-8"?>
<!-- Generator: Adobe Illustrator 22.1.0, SVG Export Plug-In . SVG Version: 6.00 Build 0)  -->
<svg version="1.1" id="Layer_1" xmlns="http://www.w3.org/2000/svg" xmlns:xlink="http://www.w3.org/1999/xlink" x="0px" y="0px"
	 viewBox="0 0 200.5 200.5" style="enable-background:new 0 0 200.5 200.5;" xml:space="preserve">
<style type="text/css">
	.st0{fill-rule:evenodd;clip-rule:evenodd;fill:#222222;}
	.st1{fill-rule:evenodd;clip-rule:evenodd;fill:#FFFFFF;stroke:#FFFFFF;stroke-miterlimit:10;}
</style>
<circle class="st0" cx="100.2" cy="100.2" r="100.2"/>
<path class="st1" d="M56.7,47.9C59.1,59.6,61.5,71.3,64,83c2.1,10.1,4.4,20.3,6.6,30.4c0.1,0.3,0.6,0.5,1.1,1c0.9-1,1.7-2,2.5-3
	c3.1-3.8,6.2-7.6,9.4-11.3c0.6-0.7,1.4-1.3,2.1-1.8c4.8,3.3,10.5,8.6,14.9,13.5c10,11.3,16.9,24.3,20.8,38.9c2,7.2,3.4,14.6,4.5,22
	c0.1,0.8-0.1,1.8,1.1,2.2c2.9-2.7,4.8-6.1,6.6-9.5c12.7-24.6,13.6-49.6,1.9-74.9c-4.5-9.6-10.7-18.1-17.9-25.8
	c-0.9-0.9-2.1-1.6-2.1-3.5c4-4.9,8.1-10,12.8-15.8c-1.6-0.2-2.4-0.3-3.2-0.4c-22.9-1-45.8-1-69-1.7C56.3,45.1,56.4,46.5,56.7,47.9z"
	/>
</svg>
