<svg id="Layer_1" data-name="Layer 1" xmlns="http://www.w3.org/2000/svg" viewBox="0 0 334.12 99.47"><defs><style>.cls-1,.cls-3{fill:#fff;}.cls-2{fill:none;stroke:#fff;stroke-miterlimit:10;stroke-width:2px;}.cls-3{font-size:45px;font-family:Optima-Regular, Optima;}</style></defs><title>contact-logo</title><line class="cls-1" x1="0.02" y1="46.72" x2="334.1" y2="47.3"/><line class="cls-2" x1="30.71" y1="46.77" x2="303.41" y2="47.25"/><path class="cls-1" d="M32.68,45.77c-3.39,0-6.89,0-9.6-2.35a13.11,13.11,0,0,1-3.94-8.14L0,35.25c.67,5.14,3.37,9.55,8.28,11.48C3.46,48.48.46,53.22,0,58.19l19.1,0c.34-3,2.33-7,4.76-8.75s6-1.7,8.82-1.7Z"/><path class="cls-1" d="M301.45,46.24c3.39,0,6.89.05,9.61-2.32a13.11,13.11,0,0,0,4-8.13l19.1,0c-.69,5.14-3.41,9.54-8.32,11.45,4.85,1.76,7.84,6.51,8.28,11.48l-19.1,0c-.33-3-2.3-7-4.73-8.76s-6-1.73-8.81-1.73Z"/><text class="cls-3" transform="translate(92.06 37.91)">Contact</text><text class="cls-3" transform="translate(45.82 87.41)">Amanda Lea</text></svg>