<svg id="Layer_1" data-name="Layer 1" xmlns="http://www.w3.org/2000/svg" viewBox="0 0 334.12 98.99"><defs><style>.cls-1{fill:none;stroke:#fff;stroke-miterlimit:10;stroke-width:2px;}.cls-2,.cls-3{fill:#fff;}.cls-3{font-size:45px;font-family:Optima-Regular, Optima;}.cls-4{letter-spacing:-0.01em;}.cls-5{letter-spacing:-0.04em;}</style></defs><title>logo</title><line class="cls-1" x1="30.71" y1="47.36" x2="303.41" y2="47.83"/><path class="cls-2" d="M32.68,46.36c-3.39,0-6.89,0-9.6-2.35a13.11,13.11,0,0,1-3.94-8.14L0,35.84C.71,41,3.41,45.39,8.32,47.32,3.46,49.06.46,53.8,0,58.77l19.1,0c.34-3,2.33-7,4.76-8.75s6-1.7,8.82-1.7Z"/><path class="cls-2" d="M301.45,46.83c3.39,0,6.89.05,9.61-2.32a13.11,13.11,0,0,0,4-8.13l19.1,0c-.69,5.14-3.41,9.54-8.32,11.45,4.85,1.76,7.84,6.51,8.28,11.48l-19.1,0c-.33-3-2.3-7-4.73-8.76s-6-1.73-8.81-1.73Z"/><text class="cls-3" transform="translate(47.08 37.91)">Amanda Lea</text><text class="cls-3" transform="translate(47.08 86.93)">Photog<tspan class="cls-4" x="135.09" y="0">r</tspan><tspan x="149.54" y="0">ap</tspan><tspan class="cls-5" x="197.05" y="0">h</tspan><tspan x="220.41" y="0">y</tspan></text></svg>